<?xml version="1.0" encoding="UTF-8"?>
<svg xmlns="http://www.w3.org/2000/svg" version="1.1" width="100" height="100" viewBox="0 0 100 100"><rect x="0" y="0" width="100" height="100" fill="#ffffff"/><g transform="scale(3.03)"><g transform="translate(0,0)"><path fill-rule="evenodd" d="M8 0L8 1L11 1L11 3L10 3L10 2L9 2L9 3L10 3L10 5L9 5L9 6L8 6L8 8L9 8L9 9L7 9L7 8L6 8L6 9L5 9L5 8L3 8L3 9L2 9L2 8L0 8L0 10L1 10L1 9L2 9L2 10L5 10L5 11L7 11L7 12L4 12L4 11L0 11L0 12L4 12L4 14L3 14L3 13L0 13L0 19L1 19L1 18L2 18L2 16L5 16L5 13L7 13L7 12L8 12L8 14L6 14L6 15L8 15L8 14L9 14L9 13L10 13L10 14L11 14L11 12L8 12L8 11L7 11L7 10L9 10L9 11L10 11L10 10L11 10L11 9L10 9L10 7L11 7L11 6L12 6L12 9L13 9L13 10L12 10L12 11L14 11L14 10L15 10L15 13L14 13L14 14L13 14L13 13L12 13L12 14L13 14L13 15L12 15L12 16L9 16L9 17L10 17L10 18L9 18L9 19L10 19L10 20L8 20L8 21L7 21L7 20L6 20L6 19L8 19L8 17L7 17L7 16L6 16L6 17L4 17L4 18L3 18L3 19L2 19L2 20L0 20L0 25L4 25L4 24L5 24L5 23L8 23L8 26L9 26L9 25L10 25L10 24L9 24L9 23L8 23L8 21L9 21L9 22L10 22L10 23L11 23L11 25L13 25L13 26L11 26L11 27L9 27L9 28L8 28L8 30L9 30L9 31L8 31L8 33L10 33L10 30L11 30L11 31L12 31L12 33L15 33L15 31L18 31L18 32L17 32L17 33L21 33L21 32L20 32L20 31L22 31L22 33L23 33L23 31L22 31L22 30L23 30L23 29L25 29L25 30L26 30L26 29L27 29L27 30L28 30L28 31L27 31L27 32L28 32L28 33L29 33L29 32L33 32L33 30L32 30L32 31L31 31L31 29L30 29L30 30L28 30L28 29L29 29L29 28L31 28L31 27L29 27L29 26L30 26L30 24L31 24L31 26L32 26L32 24L33 24L33 22L31 22L31 21L32 21L32 20L33 20L33 16L32 16L32 15L31 15L31 14L32 14L32 11L33 11L33 10L32 10L32 9L33 9L33 8L32 8L32 9L30 9L30 10L31 10L31 11L30 11L30 12L29 12L29 9L27 9L27 8L26 8L26 9L27 9L27 10L26 10L26 11L24 11L24 10L25 10L25 9L23 9L23 6L24 6L24 8L25 8L25 6L24 6L24 5L23 5L23 3L24 3L24 4L25 4L25 2L23 2L23 0L20 0L20 1L18 1L18 0L17 0L17 2L18 2L18 3L16 3L16 2L13 2L13 1L12 1L12 0ZM14 0L14 1L15 1L15 0ZM21 1L21 2L22 2L22 3L23 3L23 2L22 2L22 1ZM12 2L12 4L13 4L13 5L12 5L12 6L13 6L13 7L14 7L14 8L13 8L13 9L14 9L14 8L15 8L15 9L16 9L16 8L15 8L15 7L16 7L16 6L17 6L17 8L19 8L19 7L20 7L20 8L21 8L21 9L22 9L22 5L21 5L21 4L20 4L20 2L19 2L19 4L20 4L20 5L18 5L18 4L17 4L17 5L16 5L16 3L14 3L14 4L13 4L13 2ZM10 5L10 6L9 6L9 7L10 7L10 6L11 6L11 5ZM13 5L13 6L14 6L14 7L15 7L15 5ZM17 5L17 6L18 6L18 7L19 7L19 6L18 6L18 5ZM20 5L20 7L21 7L21 5ZM6 9L6 10L7 10L7 9ZM9 9L9 10L10 10L10 9ZM17 9L17 10L16 10L16 11L17 11L17 10L18 10L18 12L16 12L16 15L15 15L15 16L14 16L14 15L13 15L13 16L14 16L14 18L13 18L13 17L12 17L12 18L10 18L10 19L12 19L12 21L11 21L11 20L10 20L10 21L11 21L11 22L12 22L12 23L13 23L13 25L15 25L15 24L17 24L17 25L18 25L18 26L17 26L17 27L15 27L15 28L16 28L16 30L19 30L19 29L20 29L20 30L21 30L21 29L23 29L23 28L24 28L24 27L23 27L23 28L22 28L22 26L23 26L23 24L22 24L22 23L20 23L20 22L23 22L23 21L26 21L26 22L24 22L24 24L26 24L26 22L27 22L27 24L28 24L28 22L27 22L27 21L29 21L29 23L30 23L30 21L31 21L31 20L32 20L32 18L31 18L31 20L29 20L29 19L28 19L28 20L26 20L26 19L25 19L25 20L23 20L23 21L22 21L22 19L21 19L21 20L20 20L20 19L19 19L19 17L18 17L18 16L21 16L21 17L20 17L20 18L24 18L24 17L25 17L25 18L26 18L26 17L25 17L25 16L26 16L26 14L27 14L27 15L28 15L28 16L29 16L29 18L30 18L30 17L31 17L31 16L29 16L29 14L30 14L30 13L31 13L31 12L30 12L30 13L29 13L29 12L28 12L28 10L27 10L27 11L26 11L26 12L24 12L24 13L26 13L26 14L25 14L25 16L24 16L24 14L23 14L23 11L21 11L21 10L19 10L19 9ZM18 12L18 13L17 13L17 14L18 14L18 15L21 15L21 14L18 14L18 13L21 13L21 12ZM26 12L26 13L27 13L27 14L28 14L28 13L27 13L27 12ZM1 14L1 15L2 15L2 14ZM22 14L22 15L23 15L23 14ZM15 16L15 19L16 19L16 20L14 20L14 19L13 19L13 18L12 18L12 19L13 19L13 20L14 20L14 24L15 24L15 23L17 23L17 24L18 24L18 25L21 25L21 24L20 24L20 23L19 23L19 22L20 22L20 20L19 20L19 19L18 19L18 20L17 20L17 19L16 19L16 18L18 18L18 17L17 17L17 16ZM23 16L23 17L24 17L24 16ZM6 17L6 18L7 18L7 17ZM27 17L27 18L28 18L28 17ZM3 19L3 21L1 21L1 24L2 24L2 23L3 23L3 24L4 24L4 23L3 23L3 21L4 21L4 19ZM5 20L5 21L6 21L6 22L7 22L7 21L6 21L6 20ZM16 20L16 21L17 21L17 20ZM12 21L12 22L13 22L13 21ZM18 21L18 22L19 22L19 21ZM6 24L6 25L7 25L7 24ZM25 25L25 28L28 28L28 25ZM18 26L18 29L19 29L19 27L20 27L20 28L21 28L21 27L20 27L20 26ZM26 26L26 27L27 27L27 26ZM12 27L12 28L9 28L9 29L14 29L14 30L12 30L12 31L13 31L13 32L14 32L14 31L15 31L15 29L14 29L14 27ZM32 28L32 29L33 29L33 28ZM25 31L25 32L24 32L24 33L25 33L25 32L26 32L26 31ZM28 31L28 32L29 32L29 31ZM0 0L0 7L7 7L7 0ZM1 1L1 6L6 6L6 1ZM2 2L2 5L5 5L5 2ZM26 0L26 7L33 7L33 0ZM27 1L27 6L32 6L32 1ZM28 2L28 5L31 5L31 2ZM0 26L0 33L7 33L7 26ZM1 27L1 32L6 32L6 27ZM2 28L2 31L5 31L5 28Z" fill="#000000"/></g></g></svg>
