<?xml version="1.0" encoding="UTF-8"?>
<svg xmlns="http://www.w3.org/2000/svg" version="1.1" width="100" height="100" viewBox="0 0 100 100"><rect x="0" y="0" width="100" height="100" fill="#ffffff"/><g transform="scale(3.03)"><g transform="translate(0,0)"><path fill-rule="evenodd" d="M9 0L9 1L8 1L8 2L9 2L9 3L8 3L8 4L10 4L10 7L11 7L11 4L12 4L12 5L13 5L13 6L12 6L12 9L13 9L13 10L11 10L11 11L10 11L10 9L11 9L11 8L6 8L6 9L9 9L9 13L8 13L8 12L6 12L6 11L7 11L7 10L6 10L6 11L4 11L4 10L3 10L3 9L5 9L5 8L0 8L0 9L1 9L1 10L0 10L0 11L1 11L1 12L2 12L2 13L0 13L0 17L1 17L1 18L0 18L0 19L2 19L2 20L3 20L3 18L4 18L4 17L3 17L3 16L2 16L2 15L1 15L1 14L6 14L6 15L7 15L7 14L11 14L11 13L12 13L12 14L14 14L14 15L15 15L15 16L13 16L13 15L12 15L12 17L13 17L13 18L11 18L11 21L10 21L10 20L9 20L9 21L10 21L10 22L9 22L9 23L8 23L8 24L6 24L6 25L8 25L8 27L9 27L9 28L8 28L8 33L10 33L10 30L9 30L9 28L10 28L10 29L12 29L12 30L13 30L13 31L12 31L12 33L13 33L13 32L14 32L14 33L19 33L19 30L20 30L20 29L21 29L21 28L22 28L22 27L23 27L23 28L24 28L24 29L23 29L23 30L21 30L21 31L20 31L20 33L21 33L21 32L23 32L23 31L24 31L24 29L25 29L25 31L26 31L26 32L24 32L24 33L26 33L26 32L27 32L27 30L26 30L26 29L28 29L28 30L30 30L30 31L29 31L29 32L31 32L31 33L32 33L32 32L31 32L31 31L32 31L32 30L31 30L31 29L30 29L30 28L31 28L31 27L32 27L32 28L33 28L33 27L32 27L32 26L33 26L33 23L32 23L32 22L33 22L33 21L32 21L32 22L31 22L31 21L30 21L30 22L28 22L28 23L26 23L26 24L25 24L25 23L23 23L23 22L27 22L27 21L26 21L26 19L22 19L22 17L23 17L23 18L25 18L25 17L26 17L26 18L27 18L27 19L28 19L28 17L29 17L29 18L30 18L30 19L29 19L29 20L28 20L28 21L29 21L29 20L32 20L32 18L33 18L33 17L32 17L32 16L33 16L33 15L32 15L32 14L33 14L33 12L32 12L32 10L33 10L33 9L32 9L32 8L31 8L31 9L30 9L30 8L29 8L29 9L30 9L30 10L28 10L28 11L27 11L27 12L28 12L28 13L29 13L29 12L32 12L32 14L31 14L31 13L30 13L30 14L28 14L28 16L27 16L27 17L26 17L26 16L25 16L25 15L27 15L27 13L26 13L26 11L23 11L23 10L25 10L25 9L26 9L26 10L27 10L27 9L28 9L28 8L27 8L27 9L26 9L26 8L25 8L25 4L23 4L23 1L24 1L24 0L23 0L23 1L22 1L22 0L18 0L18 1L17 1L17 0L16 0L16 1L14 1L14 0L13 0L13 1L11 1L11 2L10 2L10 0ZM16 1L16 2L17 2L17 3L16 3L16 4L15 4L15 5L16 5L16 4L17 4L17 3L19 3L19 4L22 4L22 6L21 6L21 7L22 7L22 6L23 6L23 8L21 8L21 9L20 9L20 8L19 8L19 7L20 7L20 5L17 5L17 8L16 8L16 6L15 6L15 9L14 9L14 10L17 10L17 11L12 11L12 13L13 13L13 12L18 12L18 13L14 13L14 14L16 14L16 16L18 16L18 17L14 17L14 18L16 18L16 19L15 19L15 20L16 20L16 21L13 21L13 20L14 20L14 19L12 19L12 21L11 21L11 22L10 22L10 23L9 23L9 24L8 24L8 25L9 25L9 27L10 27L10 26L13 26L13 27L12 27L12 29L14 29L14 30L16 30L16 31L14 31L14 32L18 32L18 30L19 30L19 29L18 29L18 30L17 30L17 29L15 29L15 28L18 28L18 27L14 27L14 26L19 26L19 28L21 28L21 25L22 25L22 26L24 26L24 24L23 24L23 23L22 23L22 24L21 24L21 25L20 25L20 24L19 24L19 25L12 25L12 23L13 23L13 24L14 24L14 23L15 23L15 22L16 22L16 24L18 24L18 23L21 23L21 21L25 21L25 20L21 20L21 19L20 19L20 18L21 18L21 17L22 17L22 16L23 16L23 17L25 17L25 16L24 16L24 15L25 15L25 14L26 14L26 13L25 13L25 12L23 12L23 13L22 13L22 12L21 12L21 11L20 11L20 10L23 10L23 8L24 8L24 9L25 9L25 8L24 8L24 5L23 5L23 4L22 4L22 3L21 3L21 2L20 2L20 1L19 1L19 2L17 2L17 1ZM12 2L12 4L13 4L13 5L14 5L14 4L13 4L13 3L14 3L14 2ZM10 3L10 4L11 4L11 3ZM8 5L8 7L9 7L9 5ZM13 6L13 8L14 8L14 6ZM18 6L18 7L19 7L19 6ZM17 8L17 10L18 10L18 11L19 11L19 10L20 10L20 9L19 9L19 8ZM18 9L18 10L19 10L19 9ZM30 10L30 11L31 11L31 10ZM2 11L2 12L3 12L3 13L4 13L4 12L3 12L3 11ZM28 11L28 12L29 12L29 11ZM10 12L10 13L11 13L11 12ZM19 12L19 13L18 13L18 14L17 14L17 15L18 15L18 16L19 16L19 17L18 17L18 18L17 18L17 19L16 19L16 20L17 20L17 21L16 21L16 22L17 22L17 21L18 21L18 22L20 22L20 21L21 21L21 20L20 20L20 21L18 21L18 20L19 20L19 18L20 18L20 16L22 16L22 15L23 15L23 14L25 14L25 13L23 13L23 14L22 14L22 13L21 13L21 12ZM6 13L6 14L7 14L7 13ZM20 13L20 14L18 14L18 15L19 15L19 16L20 16L20 14L21 14L21 15L22 15L22 14L21 14L21 13ZM10 15L10 16L8 16L8 17L7 17L7 16L6 16L6 17L7 17L7 18L5 18L5 19L4 19L4 21L3 21L3 23L4 23L4 21L5 21L5 19L7 19L7 20L6 20L6 21L7 21L7 22L5 22L5 23L7 23L7 22L8 22L8 19L9 19L9 18L10 18L10 16L11 16L11 15ZM30 16L30 17L31 17L31 16ZM2 17L2 18L3 18L3 17ZM17 19L17 20L18 20L18 19ZM0 20L0 25L1 25L1 22L2 22L2 21L1 21L1 20ZM12 21L12 22L13 22L13 21ZM28 23L28 24L29 24L29 25L30 25L30 26L29 26L29 27L31 27L31 26L32 26L32 24L30 24L30 23ZM3 24L3 25L4 25L4 24ZM10 24L10 25L11 25L11 24ZM22 24L22 25L23 25L23 24ZM19 25L19 26L20 26L20 25ZM25 25L25 28L28 28L28 25ZM26 26L26 27L27 27L27 26ZM0 0L0 7L7 7L7 0ZM1 1L1 6L6 6L6 1ZM2 2L2 5L5 5L5 2ZM26 0L26 7L33 7L33 0ZM27 1L27 6L32 6L32 1ZM28 2L28 5L31 5L31 2ZM0 26L0 33L7 33L7 26ZM1 27L1 32L6 32L6 27ZM2 28L2 31L5 31L5 28Z" fill="#000000"/></g></g></svg>
