<?xml version="1.0" encoding="UTF-8"?>
<svg xmlns="http://www.w3.org/2000/svg" version="1.1" width="100" height="100" viewBox="0 0 100 100"><rect x="0" y="0" width="100" height="100" fill="#ffffff"/><g transform="scale(3.03)"><g transform="translate(0,0)"><path fill-rule="evenodd" d="M8 0L8 4L9 4L9 5L8 5L8 7L9 7L9 6L10 6L10 9L11 9L11 8L12 8L12 9L13 9L13 8L12 8L12 7L13 7L13 6L12 6L12 7L11 7L11 3L10 3L10 2L9 2L9 0ZM14 0L14 1L17 1L17 3L16 3L16 2L14 2L14 3L13 3L13 1L11 1L11 2L12 2L12 5L14 5L14 4L15 4L15 5L16 5L16 7L17 7L17 9L20 9L20 11L21 11L21 13L20 13L20 19L19 19L19 17L18 17L18 14L17 14L17 15L16 15L16 13L19 13L19 12L18 12L18 11L19 11L19 10L18 10L18 11L16 11L16 8L15 8L15 6L14 6L14 8L15 8L15 9L14 9L14 10L13 10L13 11L12 11L12 12L11 12L11 13L10 13L10 16L12 16L12 17L13 17L13 16L12 16L12 15L13 15L13 13L12 13L12 12L13 12L13 11L16 11L16 13L14 13L14 15L16 15L16 16L17 16L17 17L14 17L14 18L13 18L13 19L12 19L12 20L11 20L11 18L9 18L9 17L7 17L7 16L6 16L6 17L4 17L4 15L3 15L3 14L4 14L4 10L5 10L5 9L7 9L7 10L6 10L6 11L8 11L8 14L6 14L6 13L7 13L7 12L6 12L6 13L5 13L5 14L6 14L6 15L8 15L8 16L9 16L9 12L10 12L10 11L11 11L11 10L9 10L9 9L7 9L7 8L4 8L4 10L3 10L3 9L2 9L2 8L0 8L0 9L2 9L2 10L0 10L0 11L1 11L1 12L2 12L2 15L1 15L1 14L0 14L0 15L1 15L1 16L0 16L0 17L1 17L1 20L0 20L0 22L2 22L2 24L0 24L0 25L2 25L2 24L3 24L3 23L4 23L4 25L7 25L7 24L9 24L9 25L8 25L8 26L9 26L9 27L8 27L8 29L9 29L9 30L11 30L11 32L12 32L12 33L14 33L14 31L17 31L17 33L18 33L18 32L19 32L19 33L20 33L20 32L21 32L21 33L22 33L22 28L23 28L23 27L21 27L21 25L22 25L22 26L23 26L23 25L22 25L22 23L21 23L21 25L20 25L20 24L18 24L18 22L16 22L16 21L20 21L20 22L21 22L21 21L22 21L22 22L23 22L23 23L25 23L25 22L24 22L24 21L25 21L25 20L26 20L26 21L27 21L27 22L28 22L28 21L29 21L29 19L30 19L30 18L31 18L31 21L30 21L30 22L31 22L31 26L30 26L30 25L29 25L29 24L30 24L30 23L26 23L26 24L24 24L24 29L23 29L23 30L24 30L24 31L23 31L23 32L24 32L24 33L25 33L25 31L26 31L26 33L28 33L28 32L29 32L29 31L30 31L30 30L31 30L31 31L32 31L32 30L33 30L33 27L32 27L32 24L33 24L33 23L32 23L32 21L33 21L33 20L32 20L32 18L31 18L31 17L30 17L30 16L28 16L28 17L29 17L29 18L27 18L27 19L28 19L28 20L26 20L26 19L25 19L25 18L26 18L26 17L27 17L27 16L26 16L26 17L23 17L23 15L24 15L24 16L25 16L25 15L27 15L27 14L28 14L28 13L29 13L29 11L27 11L27 12L26 12L26 11L25 11L25 10L26 10L26 9L24 9L24 7L25 7L25 5L24 5L24 3L25 3L25 0L22 0L22 1L24 1L24 2L21 2L21 0L20 0L20 1L19 1L19 3L20 3L20 5L19 5L19 4L17 4L17 3L18 3L18 1L17 1L17 0ZM20 2L20 3L21 3L21 7L20 7L20 6L19 6L19 5L17 5L17 7L18 7L18 6L19 6L19 7L20 7L20 9L21 9L21 7L22 7L22 6L23 6L23 7L24 7L24 5L22 5L22 3L21 3L21 2ZM22 8L22 12L23 12L23 8ZM27 8L27 10L28 10L28 8ZM29 8L29 9L30 9L30 11L31 11L31 13L30 13L30 14L31 14L31 16L32 16L32 17L33 17L33 15L32 15L32 10L31 10L31 9L33 9L33 8ZM2 10L2 11L3 11L3 10ZM8 10L8 11L9 11L9 10ZM24 11L24 13L26 13L26 14L27 14L27 13L26 13L26 12L25 12L25 11ZM11 13L11 14L12 14L12 13ZM21 13L21 15L22 15L22 14L23 14L23 13ZM2 15L2 16L1 16L1 17L2 17L2 16L3 16L3 15ZM3 17L3 19L2 19L2 20L1 20L1 21L2 21L2 22L3 22L3 21L2 21L2 20L4 20L4 17ZM6 17L6 18L7 18L7 19L6 19L6 20L5 20L5 21L4 21L4 23L5 23L5 24L7 24L7 23L9 23L9 24L10 24L10 26L11 26L11 28L10 28L10 29L11 29L11 30L12 30L12 29L13 29L13 30L14 30L14 29L13 29L13 28L15 28L15 27L14 27L14 26L13 26L13 25L16 25L16 27L17 27L17 26L19 26L19 28L18 28L18 29L16 29L16 30L18 30L18 29L19 29L19 32L20 32L20 31L21 31L21 29L19 29L19 28L20 28L20 25L16 25L16 24L17 24L17 23L15 23L15 22L13 22L13 23L12 23L12 24L10 24L10 22L12 22L12 21L15 21L15 20L14 20L14 19L13 19L13 20L12 20L12 21L11 21L11 20L10 20L10 19L9 19L9 18L7 18L7 17ZM17 17L17 18L16 18L16 19L18 19L18 20L19 20L19 19L18 19L18 17ZM21 17L21 18L22 18L22 19L23 19L23 17ZM7 19L7 20L6 20L6 21L7 21L7 22L5 22L5 23L7 23L7 22L8 22L8 21L9 21L9 22L10 22L10 21L9 21L9 20L8 20L8 19ZM20 19L20 21L21 21L21 19ZM24 19L24 20L22 20L22 21L24 21L24 20L25 20L25 19ZM7 20L7 21L8 21L8 20ZM14 23L14 24L15 24L15 23ZM12 24L12 25L13 25L13 24ZM25 25L25 28L28 28L28 25ZM26 26L26 27L27 27L27 26ZM12 27L12 28L11 28L11 29L12 29L12 28L13 28L13 27ZM29 27L29 28L30 28L30 29L31 29L31 28L32 28L32 27ZM24 29L24 30L26 30L26 29ZM27 30L27 32L28 32L28 30ZM8 31L8 33L10 33L10 31ZM12 31L12 32L13 32L13 31ZM32 32L32 33L33 33L33 32ZM0 0L0 7L7 7L7 0ZM1 1L1 6L6 6L6 1ZM2 2L2 5L5 5L5 2ZM26 0L26 7L33 7L33 0ZM27 1L27 6L32 6L32 1ZM28 2L28 5L31 5L31 2ZM0 26L0 33L7 33L7 26ZM1 27L1 32L6 32L6 27ZM2 28L2 31L5 31L5 28Z" fill="#000000"/></g></g></svg>
