<?xml version="1.0" encoding="UTF-8"?>
<svg xmlns="http://www.w3.org/2000/svg" version="1.1" width="100" height="100" viewBox="0 0 100 100"><rect x="0" y="0" width="100" height="100" fill="#ffffff"/><g transform="scale(3.03)"><g transform="translate(0,0)"><path fill-rule="evenodd" d="M8 0L8 1L11 1L11 3L10 3L10 2L9 2L9 3L10 3L10 5L9 5L9 6L8 6L8 8L9 8L9 9L10 9L10 10L9 10L9 11L8 11L8 10L5 10L5 8L3 8L3 9L2 9L2 8L0 8L0 9L1 9L1 10L0 10L0 14L1 14L1 15L0 15L0 16L2 16L2 18L1 18L1 21L0 21L0 25L3 25L3 24L5 24L5 25L7 25L7 24L5 24L5 23L3 23L3 22L4 22L4 21L5 21L5 20L6 20L6 21L7 21L7 20L6 20L6 19L7 19L7 18L9 18L9 19L10 19L10 20L9 20L9 21L8 21L8 24L9 24L9 22L11 22L11 24L10 24L10 25L8 25L8 26L9 26L9 27L10 27L10 28L8 28L8 30L9 30L9 29L10 29L10 28L12 28L12 27L14 27L14 29L11 29L11 31L12 31L12 33L16 33L16 32L17 32L17 33L21 33L21 32L20 32L20 31L22 31L22 33L23 33L23 31L22 31L22 30L23 30L23 29L25 29L25 30L26 30L26 29L27 29L27 30L28 30L28 31L27 31L27 32L28 32L28 33L29 33L29 32L33 32L33 30L32 30L32 31L31 31L31 29L30 29L30 30L28 30L28 29L29 29L29 28L31 28L31 27L29 27L29 26L30 26L30 24L31 24L31 26L32 26L32 24L33 24L33 22L31 22L31 21L32 21L32 20L33 20L33 16L32 16L32 15L31 15L31 14L32 14L32 11L33 11L33 10L32 10L32 9L33 9L33 8L32 8L32 9L30 9L30 10L31 10L31 11L30 11L30 12L29 12L29 9L27 9L27 8L26 8L26 9L27 9L27 10L26 10L26 11L24 11L24 9L25 9L25 6L24 6L24 5L22 5L22 3L23 3L23 2L21 2L21 1L19 1L19 0L17 0L17 1L19 1L19 3L16 3L16 2L13 2L13 1L12 1L12 0ZM14 0L14 1L15 1L15 0ZM24 0L24 2L25 2L25 0ZM12 2L12 4L13 4L13 5L12 5L12 6L11 6L11 5L10 5L10 6L9 6L9 7L10 7L10 9L11 9L11 10L10 10L10 11L9 11L9 12L7 12L7 11L5 11L5 12L4 12L4 11L2 11L2 10L1 10L1 11L2 11L2 12L1 12L1 13L2 13L2 16L3 16L3 17L4 17L4 18L2 18L2 19L3 19L3 20L2 20L2 22L1 22L1 24L3 24L3 23L2 23L2 22L3 22L3 21L4 21L4 18L5 18L5 17L4 17L4 16L5 16L5 15L4 15L4 16L3 16L3 12L4 12L4 14L7 14L7 13L8 13L8 15L6 15L6 16L9 16L9 15L10 15L10 13L9 13L9 12L11 12L11 16L10 16L10 17L11 17L11 16L12 16L12 15L13 15L13 16L14 16L14 18L13 18L13 17L12 17L12 18L11 18L11 19L12 19L12 21L11 21L11 22L12 22L12 23L13 23L13 25L11 25L11 26L10 26L10 27L11 27L11 26L13 26L13 25L15 25L15 24L16 24L16 27L17 27L17 29L20 29L20 30L21 30L21 29L23 29L23 28L24 28L24 27L23 27L23 28L22 28L22 26L23 26L23 25L24 25L24 24L22 24L22 23L23 23L23 21L22 21L22 19L23 19L23 20L24 20L24 21L26 21L26 22L24 22L24 23L25 23L25 24L26 24L26 22L27 22L27 24L28 24L28 22L27 22L27 21L29 21L29 23L30 23L30 21L31 21L31 20L32 20L32 18L31 18L31 20L29 20L29 19L28 19L28 20L26 20L26 19L25 19L25 20L24 20L24 19L23 19L23 18L24 18L24 17L25 17L25 18L26 18L26 17L25 17L25 16L26 16L26 14L27 14L27 15L28 15L28 16L29 16L29 18L30 18L30 17L31 17L31 16L29 16L29 14L30 14L30 13L31 13L31 12L30 12L30 13L29 13L29 12L28 12L28 10L27 10L27 11L26 11L26 12L24 12L24 11L20 11L20 10L19 10L19 9L17 9L17 11L18 11L18 12L17 12L17 14L16 14L16 15L17 15L17 17L19 17L19 16L21 16L21 17L20 17L20 18L21 18L21 21L22 21L22 23L20 23L20 22L19 22L19 21L18 21L18 22L19 22L19 23L18 23L18 24L16 24L16 23L15 23L15 24L14 24L14 20L15 20L15 16L14 16L14 15L13 15L13 14L14 14L14 13L15 13L15 10L14 10L14 11L12 11L12 10L13 10L13 9L14 9L14 8L15 8L15 9L16 9L16 8L15 8L15 7L16 7L16 6L17 6L17 8L19 8L19 7L20 7L20 6L21 6L21 9L22 9L22 8L23 8L23 9L24 9L24 6L23 6L23 7L22 7L22 6L21 6L21 5L18 5L18 4L17 4L17 5L16 5L16 3L14 3L14 4L13 4L13 2ZM19 3L19 4L21 4L21 3ZM24 3L24 4L25 4L25 3ZM13 5L13 6L12 6L12 9L13 9L13 8L14 8L14 7L15 7L15 5ZM17 5L17 6L18 6L18 7L19 7L19 6L18 6L18 5ZM10 6L10 7L11 7L11 6ZM13 6L13 7L14 7L14 6ZM6 8L6 9L7 9L7 8ZM3 9L3 10L4 10L4 9ZM18 10L18 11L19 11L19 12L18 12L18 13L21 13L21 12L20 12L20 11L19 11L19 10ZM6 12L6 13L7 13L7 12ZM23 12L23 14L22 14L22 15L23 15L23 17L24 17L24 15L23 15L23 14L26 14L26 13L27 13L27 14L28 14L28 13L27 13L27 12L26 12L26 13L24 13L24 12ZM12 13L12 14L13 14L13 13ZM18 14L18 15L21 15L21 14ZM6 17L6 18L7 18L7 17ZM27 17L27 18L28 18L28 17ZM12 18L12 19L13 19L13 20L14 20L14 19L13 19L13 18ZM18 18L18 19L17 19L17 20L20 20L20 19L19 19L19 18ZM12 21L12 22L13 22L13 21ZM16 21L16 22L17 22L17 21ZM6 22L6 23L7 23L7 22ZM18 24L18 25L17 25L17 26L18 26L18 28L19 28L19 27L20 27L20 28L21 28L21 27L20 27L20 26L21 26L21 25L20 25L20 24ZM18 25L18 26L20 26L20 25ZM25 25L25 28L28 28L28 25ZM26 26L26 27L27 27L27 26ZM32 28L32 29L33 29L33 28ZM14 29L14 30L12 30L12 31L13 31L13 32L14 32L14 31L15 31L15 29ZM16 30L16 31L17 31L17 32L18 32L18 31L19 31L19 30L18 30L18 31L17 31L17 30ZM8 31L8 33L11 33L11 32L10 32L10 31ZM25 31L25 32L24 32L24 33L25 33L25 32L26 32L26 31ZM28 31L28 32L29 32L29 31ZM0 0L0 7L7 7L7 0ZM1 1L1 6L6 6L6 1ZM2 2L2 5L5 5L5 2ZM26 0L26 7L33 7L33 0ZM27 1L27 6L32 6L32 1ZM28 2L28 5L31 5L31 2ZM0 26L0 33L7 33L7 26ZM1 27L1 32L6 32L6 27ZM2 28L2 31L5 31L5 28Z" fill="#000000"/></g></g></svg>
