<?xml version="1.0" encoding="UTF-8"?>
<svg xmlns="http://www.w3.org/2000/svg" version="1.1" width="100" height="100" viewBox="0 0 100 100"><rect x="0" y="0" width="100" height="100" fill="#ffffff"/><g transform="scale(3.03)"><g transform="translate(0,0)"><path fill-rule="evenodd" d="M10 0L10 1L8 1L8 3L9 3L9 4L8 4L8 8L6 8L6 9L4 9L4 8L3 8L3 10L4 10L4 11L5 11L5 12L6 12L6 13L5 13L5 15L4 15L4 16L3 16L3 18L4 18L4 17L7 17L7 16L5 16L5 15L7 15L7 14L6 14L6 13L8 13L8 14L9 14L9 15L8 15L8 16L10 16L10 17L8 17L8 18L9 18L9 19L7 19L7 18L5 18L5 19L4 19L4 20L5 20L5 19L7 19L7 20L6 20L6 21L1 21L1 19L2 19L2 20L3 20L3 19L2 19L2 18L1 18L1 19L0 19L0 21L1 21L1 22L0 22L0 23L1 23L1 24L0 24L0 25L1 25L1 24L2 24L2 25L5 25L5 23L7 23L7 22L6 22L6 21L7 21L7 20L9 20L9 19L10 19L10 17L11 17L11 16L12 16L12 18L11 18L11 19L12 19L12 20L13 20L13 24L12 24L12 25L11 25L11 26L9 26L9 25L10 25L10 24L11 24L11 23L10 23L10 24L8 24L8 27L10 27L10 29L12 29L12 28L13 28L13 29L14 29L14 30L13 30L13 32L12 32L12 31L11 31L11 30L10 30L10 31L8 31L8 33L9 33L9 32L11 32L11 33L13 33L13 32L14 32L14 33L15 33L15 32L16 32L16 33L17 33L17 32L18 32L18 30L17 30L17 29L18 29L18 27L19 27L19 29L20 29L20 33L26 33L26 32L27 32L27 33L30 33L30 32L29 32L29 30L30 30L30 31L33 31L33 27L32 27L32 26L33 26L33 25L32 25L32 26L31 26L31 25L30 25L30 26L29 26L29 24L28 24L28 23L31 23L31 22L32 22L32 23L33 23L33 21L31 21L31 22L30 22L30 20L29 20L29 18L30 18L30 19L31 19L31 20L32 20L32 19L33 19L33 18L30 18L30 16L29 16L29 15L28 15L28 14L30 14L30 15L32 15L32 17L33 17L33 15L32 15L32 14L33 14L33 13L32 13L32 14L30 14L30 13L28 13L28 11L29 11L29 12L30 12L30 9L32 9L32 12L33 12L33 9L32 9L32 8L30 8L30 9L29 9L29 8L26 8L26 9L25 9L25 11L24 11L24 12L25 12L25 13L26 13L26 14L23 14L23 13L22 13L22 12L23 12L23 10L22 10L22 11L21 11L21 9L24 9L24 7L25 7L25 3L23 3L23 2L25 2L25 0L23 0L23 1L22 1L22 0L19 0L19 1L21 1L21 2L22 2L22 4L23 4L23 5L21 5L21 3L19 3L19 4L16 4L16 3L15 3L15 2L17 2L17 3L18 3L18 0L17 0L17 1L16 1L16 0L13 0L13 2L14 2L14 4L13 4L13 3L12 3L12 7L11 7L11 4L10 4L10 3L9 3L9 2L11 2L11 0ZM14 4L14 5L13 5L13 7L12 7L12 8L14 8L14 6L15 6L15 8L17 8L17 9L13 9L13 11L16 11L16 13L15 13L15 12L14 12L14 14L13 14L13 12L12 12L12 16L13 16L13 18L14 18L14 19L13 19L13 20L14 20L14 19L15 19L15 21L14 21L14 22L15 22L15 23L14 23L14 25L13 25L13 27L14 27L14 28L15 28L15 30L14 30L14 32L15 32L15 31L16 31L16 32L17 32L17 30L16 30L16 29L17 29L17 27L18 27L18 26L19 26L19 27L20 27L20 29L21 29L21 31L22 31L22 32L23 32L23 29L24 29L24 26L23 26L23 25L24 25L24 24L23 24L23 25L22 25L22 26L23 26L23 27L22 27L22 29L21 29L21 23L22 23L22 22L21 22L21 21L19 21L19 22L17 22L17 21L18 21L18 20L17 20L17 19L18 19L18 17L17 17L17 16L15 16L15 15L17 15L17 14L18 14L18 13L17 13L17 12L18 12L18 11L19 11L19 10L20 10L20 9L21 9L21 7L22 7L22 6L21 6L21 5L20 5L20 4L19 4L19 5L20 5L20 6L19 6L19 10L17 10L17 9L18 9L18 8L17 8L17 7L18 7L18 5L17 5L17 7L16 7L16 6L15 6L15 4ZM9 5L9 8L8 8L8 9L6 9L6 10L5 10L5 11L6 11L6 12L8 12L8 13L9 13L9 14L11 14L11 13L10 13L10 12L9 12L9 11L11 11L11 8L10 8L10 5ZM23 5L23 7L24 7L24 5ZM20 6L20 7L21 7L21 6ZM0 8L0 11L1 11L1 10L2 10L2 8ZM9 9L9 10L8 10L8 11L9 11L9 10L10 10L10 9ZM27 9L27 10L29 10L29 9ZM6 10L6 11L7 11L7 10ZM16 10L16 11L17 11L17 10ZM2 11L2 12L0 12L0 13L1 13L1 15L0 15L0 16L2 16L2 15L3 15L3 14L4 14L4 13L3 13L3 14L2 14L2 12L3 12L3 11ZM25 11L25 12L26 12L26 11ZM20 12L20 14L19 14L19 15L20 15L20 14L21 14L21 15L23 15L23 14L21 14L21 12ZM16 13L16 14L17 14L17 13ZM27 13L27 14L28 14L28 13ZM14 14L14 15L13 15L13 16L14 16L14 15L15 15L15 14ZM26 15L26 16L25 16L25 17L26 17L26 18L25 18L25 19L26 19L26 21L25 21L25 20L24 20L24 21L23 21L23 23L24 23L24 22L26 22L26 21L27 21L27 22L29 22L29 20L28 20L28 18L29 18L29 17L28 17L28 15ZM19 16L19 20L21 20L21 19L22 19L22 20L23 20L23 19L24 19L24 18L23 18L23 19L22 19L22 17L24 17L24 16L22 16L22 17L21 17L21 19L20 19L20 16ZM26 16L26 17L27 17L27 18L26 18L26 19L27 19L27 18L28 18L28 17L27 17L27 16ZM14 17L14 18L15 18L15 17ZM16 17L16 18L17 18L17 17ZM10 20L10 21L8 21L8 23L9 23L9 22L10 22L10 21L11 21L11 22L12 22L12 21L11 21L11 20ZM27 20L27 21L28 21L28 20ZM4 22L4 23L5 23L5 22ZM19 22L19 23L20 23L20 22ZM15 23L15 24L16 24L16 25L17 25L17 26L16 26L16 27L17 27L17 26L18 26L18 24L17 24L17 23ZM26 23L26 24L27 24L27 23ZM6 24L6 25L7 25L7 24ZM19 25L19 26L20 26L20 25ZM25 25L25 28L28 28L28 25ZM11 26L11 28L12 28L12 26ZM14 26L14 27L15 27L15 26ZM26 26L26 27L27 27L27 26ZM30 26L30 27L29 27L29 28L30 28L30 30L31 30L31 26ZM8 29L8 30L9 30L9 29ZM25 29L25 30L24 30L24 31L25 31L25 32L26 32L26 31L27 31L27 32L28 32L28 31L27 31L27 30L28 30L28 29L27 29L27 30L26 30L26 29ZM25 30L25 31L26 31L26 30ZM31 32L31 33L32 33L32 32ZM0 0L0 7L7 7L7 0ZM1 1L1 6L6 6L6 1ZM2 2L2 5L5 5L5 2ZM26 0L26 7L33 7L33 0ZM27 1L27 6L32 6L32 1ZM28 2L28 5L31 5L31 2ZM0 26L0 33L7 33L7 26ZM1 27L1 32L6 32L6 27ZM2 28L2 31L5 31L5 28Z" fill="#000000"/></g></g></svg>
